<?xml version="1.0" standalone="no"?><!DOCTYPE svg PUBLIC "-//W3C//DTD SVG 1.1//EN" "http://www.w3.org/Graphics/SVG/1.1/DTD/svg11.dtd"><svg t="1777532315007" class="icon" viewBox="0 0 1024 1024" version="1.1" xmlns="http://www.w3.org/2000/svg" p-id="2357" xmlns:xlink="http://www.w3.org/1999/xlink" width="200" height="200"><path d="M747.6 123.4c71.2-3.4 168.4 96.3 159.8 159.8-4 30-126.7 137.7-237.1 255.6-110.4 117.9-238.5 275.1-293 310.6C274 916.6 77.1 820.6 123.7 720.3c23-49.5 202.6-207 341.5-341.5 143.3-138.7 246.3-253.6 282.4-255.4z" fill="#CDA17E" p-id="2358"></path><path d="M873 195.5c-28.7-23.3-61.9-39-90.8-37.5-36.2 1.7-139.1 116.7-282.4 255.2-138.9 134.4-318.5 292-341.5 341.5-12.4 26.6-7.6 53 8 76-39.7-28.8-61.8-69.3-42.6-110.5 23-49.5 202.6-207 341.5-341.5C608.4 240 711.4 125.1 747.6 123.4c41.7-1.9 92.4 31.4 125.4 72.1z m0 0" fill="#E1C6B1" p-id="2359"></path><path d="M868.5 190.2c25.9 30.1 42.7 65 38.9 93-4 30-126.7 137.7-237.1 255.6-110.4 117.9-238.5 275.1-293 310.6-88.8 57.8-246.9-5.1-259.7-87.6 54.4 49.2 159.1 73.1 225.2 30 54.5-35.5 182.6-192.7 293-310.6 110.4-117.9 233-225.5 237.1-255.6 1.4-10.9-0.2-23-4.4-35.4z m0 0" fill="#B7835A" p-id="2360"></path><path d="M580.9 287.4c-49.6 49.5-73.1 72.8-104.3 103-24.1 23.4-50.2 48.2-84.2 80-9.1 8.6-18.1 16.9-31.5 29.6-157.5 147.8-209.7 199.9-222.4 227.1-38 81.4 137.3 168.9 229.9 108.6 29.3-19.1 67.5-59.8 184.6-191.5 11.7-13.2 20.2-22.7 28.6-32 30.5-34.1 54.4-60.4 76.8-84.5 1.8-1.9 1.8-1.9 3.5-3.8 31.6-33.6 58.4-60.7 112.8-115 85-84.5 115-117.3 116.4-127.8 7.3-53.8-82.3-144.2-142.9-141.3-15.8 0.6-55.5 36.1-167.3 147.6z m165.9-180.3c80.4-3.9 186.8 103.7 176.7 178.3-3 22.3-25.2 46.5-125.7 146.6-54.2 53.9-80.8 80.9-112.1 114.1l-3.5 3.7c-22.3 23.8-46.1 50-76.3 83.8-8.4 9.4-16.8 18.8-28.5 32-120.9 136.3-158.1 175.7-191.3 197.2-116 75.5-331.8-32.3-277.2-149.6 15.5-33.3 63.9-81.6 229.7-237.1 13.5-12.6 22.4-21 31.5-29.6 33.8-31.8 59.8-56.5 83.8-79.7 31-30 54.6-53.3 104-102.7 127.9-127.3 159.4-155.6 188.9-157z m0 0" fill="#333333" p-id="2361"></path><path d="M760.1 219.6c-4.7 4.7-4.7 12.4 0 17.1 4.7 4.7 12.4 4.7 17.1 0 4.7-4.7 4.7-12.4 0-17.1-4.7-4.7-12.4-4.7-17.1 0z m0 0M785.8 313.9c-4.7 4.7-4.7 12.4 0 17.1 4.7 4.7 12.4 4.7 17.1 0 4.7-4.7 4.7-12.4 0-17.1-4.7-4.8-12.4-4.8-17.1 0z m0 0M665.8 279.6c-4.7 4.7-4.7 12.4 0 17.1 4.7 4.7 12.4 4.7 17.1 0 4.7-4.7 4.7-12.4 0-17.1s-12.3-4.7-17.1 0z m0 0M648.7 331c-4.7 4.7-4.7 12.4 0 17.1 4.7 4.7 12.4 4.7 17.1 0 4.7-4.7 4.7-12.4 0-17.1-4.7-4.7-12.4-4.7-17.1 0z m0 0M614.4 451c-4.7 4.7-4.7 12.4 0 17.1 4.7 4.7 12.4 4.7 17.1 0 4.7-4.7 4.7-12.4 0-17.1-4.7-4.7-12.4-4.7-17.1 0z m0 0M467.9 442.4c-4.5 4.5-4.5 11.7 0 16.1 4.5 4.5 11.7 4.5 16.1 0 4.5-4.5 4.5-11.7 0-16.1-4.4-4.5-11.7-4.5-16.1 0z m0 0M683 416.7c-4.7 4.7-4.7 12.4 0 17.1 4.7 4.7 12.4 4.7 17.1 0 4.7-4.7 4.7-12.4 0-17.1-4.7-4.7-12.4-4.7-17.1 0z m0 0M540.5 563.4c-4.5 4.5-4.5 11.7 0 16.1 4.5 4.5 11.7 4.5 16.1 0 4.5-4.5 4.5-11.7 0-16.1-4.4-4.5-11.6-4.5-16.1 0z m0 0M357.8 594.1c-4.5 4.5-4.5 11.7 0 16.1 4.5 4.5 11.7 4.5 16.1 0 4.5-4.5 4.5-11.7 0-16.1-4.4-4.4-11.6-4.4-16.1 0z m0 0M428 561c-4.5 4.5-4.5 11.7 0 16.1 4.5 4.5 11.7 4.5 16.1 0 4.5-4.5 4.5-11.7 0-16.1-4.4-4.4-11.7-4.4-16.1 0z m0 0M452.2 649.8c-4.5 4.5-4.5 11.7 0 16.1 4.5 4.5 11.7 4.5 16.1 0 4.5-4.5 4.5-11.7 0-16.1-4.4-4.5-11.7-4.5-16.1 0z m0 0M323.1 665.9c-4.5 4.5-4.5 11.7 0 16.1 4.5 4.5 11.7 4.5 16.1 0 4.5-4.5 4.5-11.7 0-16.1-4.4-4.5-11.7-4.5-16.1 0z m0 0M290.8 778.9c-4.5 4.5-4.5 11.7 0 16.1 4.5 4.5 11.7 4.5 16.1 0 4.5-4.5 4.5-11.7 0-16.1-4.4-4.5-11.6-4.5-16.1 0z m0 0M177.9 746.6c-4.5 4.5-4.5 11.7 0 16.1 4.5 4.5 11.7 4.5 16.1 0 4.5-4.5 4.5-11.7 0-16.1-4.5-4.5-11.7-4.5-16.1 0z m0 0" fill="#6C4935" p-id="2362"></path><path d="M765.609586 269.211465a110.5 62.7 39.934 1 0 80.494857-96.15476 110.5 62.7 39.934 1 0-80.494857 96.15476Z" fill="#FCF3F0" p-id="2363"></path></svg>